<mxfile host="app.diagrams.net" modified="2020-12-14T12:45:47.529Z" agent="5.0 (X11)" etag="QQI4Eev_0oQsWe5XHoNk" version="14.0.1" type="github">
  <diagram id="SSE79zwauuAT8n8Q6bL2" name="Page-1">
    <mxGraphModel dx="1350" dy="804" grid="1" gridSize="10" guides="1" tooltips="1" connect="1" arrows="1" fold="1" page="1" pageScale="1" pageWidth="1169" pageHeight="827" math="0" shadow="0">
      <root>
        <mxCell id="0" />
        <mxCell id="1" parent="0" />
        <mxCell id="xi6CKTalc71JRSsFVKa0-21" value="" style="rounded=1;whiteSpace=wrap;html=1;" vertex="1" parent="1">
          <mxGeometry x="397" y="840" width="273" height="220" as="geometry" />
        </mxCell>
        <mxCell id="0ElEcp9tGG0Cmhz9kI70-19" value="" style="html=1;shadow=0;dashed=0;align=center;verticalAlign=middle;shape=mxgraph.arrows2.arrow;dy=0.6;dx=40;direction=south;notch=0;fillColor=#dae8fc;strokeColor=#6c8ebf;" parent="1" vertex="1">
          <mxGeometry x="253.5" y="770" width="38" height="100" as="geometry" />
        </mxCell>
        <mxCell id="0ElEcp9tGG0Cmhz9kI70-15" value="" style="html=1;shadow=0;dashed=0;align=center;verticalAlign=middle;shape=mxgraph.arrows2.arrow;dy=0.6;dx=40;notch=0;fillColor=#dae8fc;strokeColor=#6c8ebf;" parent="1" vertex="1">
          <mxGeometry x="100" y="760" width="140" height="30" as="geometry" />
        </mxCell>
        <mxCell id="zT9SbAeMT8_BYwtl0zJ8-107" value="" style="rounded=0;whiteSpace=wrap;html=1;labelBackgroundColor=#ffffff;sketch=0;strokeColor=#b85450;fillColor=#f8cecc;" parent="1" vertex="1">
          <mxGeometry x="540" y="343" width="230" height="87" as="geometry" />
        </mxCell>
        <mxCell id="zT9SbAeMT8_BYwtl0zJ8-106" value="" style="html=1;shadow=0;dashed=0;align=center;verticalAlign=middle;shape=mxgraph.arrows2.arrow;dy=0.6;dx=40;direction=south;notch=0;labelBackgroundColor=#ffffff;sketch=0;strokeColor=#b85450;fillColor=#f8cecc;" parent="1" vertex="1">
          <mxGeometry x="580" y="402.5" width="40" height="315" as="geometry" />
        </mxCell>
        <mxCell id="zT9SbAeMT8_BYwtl0zJ8-101" value="" style="html=1;shadow=0;dashed=0;align=center;verticalAlign=middle;shape=mxgraph.arrows2.arrow;dy=0.6;dx=40;direction=south;notch=0;labelBackgroundColor=#ffffff;sketch=0;strokeColor=#9673a6;fillColor=#e1d5e7;" parent="1" vertex="1">
          <mxGeometry x="340" y="640" width="40" height="77.5" as="geometry" />
        </mxCell>
        <mxCell id="zT9SbAeMT8_BYwtl0zJ8-86" value="" style="rounded=1;whiteSpace=wrap;html=1;labelBackgroundColor=#ffffff;sketch=0;strokeColor=#9673a6;fillColor=#e1d5e7;" parent="1" vertex="1">
          <mxGeometry x="210" y="480" width="320" height="160" as="geometry" />
        </mxCell>
        <mxCell id="zT9SbAeMT8_BYwtl0zJ8-54" value="" style="rounded=0;whiteSpace=wrap;html=1;labelBackgroundColor=#ffffff;sketch=0;fillColor=#d5e8d4;strokeColor=#82b366;" parent="1" vertex="1">
          <mxGeometry x="225" y="525" width="140" height="90" as="geometry" />
        </mxCell>
        <mxCell id="zT9SbAeMT8_BYwtl0zJ8-3" value="" style="strokeWidth=2;html=1;shape=mxgraph.flowchart.annotation_2;align=left;labelPosition=right;pointerEvents=1;rotation=90;" parent="1" vertex="1">
          <mxGeometry x="340" y="70" width="50" height="300" as="geometry" />
        </mxCell>
        <mxCell id="zT9SbAeMT8_BYwtl0zJ8-4" value="Semart" style="text;html=1;strokeColor=none;fillColor=none;align=center;verticalAlign=middle;whiteSpace=wrap;rounded=0;" parent="1" vertex="1">
          <mxGeometry x="355" y="180" width="40" height="20" as="geometry" />
        </mxCell>
        <mxCell id="zT9SbAeMT8_BYwtl0zJ8-6" value="" style="html=1;shadow=0;dashed=0;align=center;verticalAlign=middle;shape=mxgraph.arrows2.arrow;dy=0.6;dx=40;direction=south;notch=0;fillColor=#ffe6cc;strokeColor=#d79b00;" parent="1" vertex="1">
          <mxGeometry x="267.5" y="310" width="45" height="210" as="geometry" />
        </mxCell>
        <mxCell id="zT9SbAeMT8_BYwtl0zJ8-91" style="edgeStyle=orthogonalEdgeStyle;rounded=0;orthogonalLoop=1;jettySize=auto;html=1;fontColor=#99CCFF;" parent="1" source="zT9SbAeMT8_BYwtl0zJ8-10" target="zT9SbAeMT8_BYwtl0zJ8-90" edge="1">
          <mxGeometry relative="1" as="geometry">
            <mxPoint x="280" y="130" as="sourcePoint" />
            <Array as="points">
              <mxPoint x="290" y="170" />
              <mxPoint x="582" y="170" />
            </Array>
          </mxGeometry>
        </mxCell>
        <mxCell id="0ElEcp9tGG0Cmhz9kI70-1" style="edgeStyle=orthogonalEdgeStyle;rounded=0;orthogonalLoop=1;jettySize=auto;html=1;exitX=0;exitY=0.5;exitDx=0;exitDy=0;exitPerimeter=0;entryX=0;entryY=0;entryDx=0;entryDy=30;entryPerimeter=0;" parent="1" source="zT9SbAeMT8_BYwtl0zJ8-10" target="zT9SbAeMT8_BYwtl0zJ8-100" edge="1">
          <mxGeometry relative="1" as="geometry">
            <Array as="points">
              <mxPoint x="160" y="255" />
              <mxPoint x="160" y="740" />
            </Array>
          </mxGeometry>
        </mxCell>
        <mxCell id="zT9SbAeMT8_BYwtl0zJ8-10" value="Tain + Eval" style="shape=note;whiteSpace=wrap;html=1;backgroundOutline=1;darkOpacity=0.05;fillColor=#ffe6cc;strokeColor=#d79b00;" parent="1" vertex="1">
          <mxGeometry x="225" y="230" width="130" height="50" as="geometry" />
        </mxCell>
        <mxCell id="zT9SbAeMT8_BYwtl0zJ8-103" style="edgeStyle=orthogonalEdgeStyle;rounded=0;orthogonalLoop=1;jettySize=auto;html=1;exitX=0;exitY=0;exitDx=115;exitDy=40;exitPerimeter=0;fontColor=#99CCFF;" parent="1" source="zT9SbAeMT8_BYwtl0zJ8-11" edge="1">
          <mxGeometry relative="1" as="geometry">
            <mxPoint x="720" y="370" as="targetPoint" />
          </mxGeometry>
        </mxCell>
        <mxCell id="zT9SbAeMT8_BYwtl0zJ8-11" value="Test" style="shape=note;whiteSpace=wrap;html=1;backgroundOutline=1;darkOpacity=0.05;fillColor=#dae8fc;strokeColor=#6c8ebf;" parent="1" vertex="1">
          <mxGeometry x="380" y="230" width="115" height="50" as="geometry" />
        </mxCell>
        <mxCell id="zT9SbAeMT8_BYwtl0zJ8-62" style="edgeStyle=orthogonalEdgeStyle;rounded=0;orthogonalLoop=1;jettySize=auto;html=1;exitX=1;exitY=0;exitDx=0;exitDy=0;entryX=0.5;entryY=1;entryDx=0;entryDy=0;" parent="1" source="zT9SbAeMT8_BYwtl0zJ8-50" target="zT9SbAeMT8_BYwtl0zJ8-52" edge="1">
          <mxGeometry relative="1" as="geometry" />
        </mxCell>
        <mxCell id="zT9SbAeMT8_BYwtl0zJ8-63" style="edgeStyle=orthogonalEdgeStyle;rounded=0;orthogonalLoop=1;jettySize=auto;html=1;exitX=0;exitY=0;exitDx=0;exitDy=0;entryX=1;entryY=1;entryDx=0;entryDy=0;" parent="1" source="zT9SbAeMT8_BYwtl0zJ8-50" target="zT9SbAeMT8_BYwtl0zJ8-51" edge="1">
          <mxGeometry relative="1" as="geometry" />
        </mxCell>
        <mxCell id="zT9SbAeMT8_BYwtl0zJ8-50" value="" style="ellipse;whiteSpace=wrap;html=1;aspect=fixed;labelBackgroundColor=#ffffff;sketch=0;fillColor=#ffe6cc;strokeColor=#d79b00;" parent="1" vertex="1">
          <mxGeometry x="305" y="580" width="23" height="23" as="geometry" />
        </mxCell>
        <mxCell id="zT9SbAeMT8_BYwtl0zJ8-58" style="edgeStyle=orthogonalEdgeStyle;rounded=0;orthogonalLoop=1;jettySize=auto;html=1;exitX=1;exitY=0.5;exitDx=0;exitDy=0;" parent="1" source="zT9SbAeMT8_BYwtl0zJ8-51" target="zT9SbAeMT8_BYwtl0zJ8-52" edge="1">
          <mxGeometry relative="1" as="geometry" />
        </mxCell>
        <mxCell id="zT9SbAeMT8_BYwtl0zJ8-51" value="" style="ellipse;whiteSpace=wrap;html=1;aspect=fixed;labelBackgroundColor=#ffffff;sketch=0;fillColor=#ffe6cc;strokeColor=#d79b00;" parent="1" vertex="1">
          <mxGeometry x="262.5" y="535" width="20" height="20" as="geometry" />
        </mxCell>
        <mxCell id="zT9SbAeMT8_BYwtl0zJ8-52" value="" style="ellipse;whiteSpace=wrap;html=1;aspect=fixed;labelBackgroundColor=#ffffff;sketch=0;fillColor=#ffe6cc;strokeColor=#d79b00;" parent="1" vertex="1">
          <mxGeometry x="315" y="535" width="23" height="23" as="geometry" />
        </mxCell>
        <mxCell id="zT9SbAeMT8_BYwtl0zJ8-61" style="edgeStyle=orthogonalEdgeStyle;rounded=0;orthogonalLoop=1;jettySize=auto;html=1;exitX=0.5;exitY=0;exitDx=0;exitDy=0;entryX=0;entryY=0.5;entryDx=0;entryDy=0;" parent="1" source="zT9SbAeMT8_BYwtl0zJ8-59" target="zT9SbAeMT8_BYwtl0zJ8-51" edge="1">
          <mxGeometry relative="1" as="geometry" />
        </mxCell>
        <mxCell id="zT9SbAeMT8_BYwtl0zJ8-59" value="" style="ellipse;whiteSpace=wrap;html=1;aspect=fixed;labelBackgroundColor=#ffffff;sketch=0;fillColor=#ffe6cc;strokeColor=#d79b00;" parent="1" vertex="1">
          <mxGeometry x="255" y="578" width="18" height="18" as="geometry" />
        </mxCell>
        <mxCell id="zT9SbAeMT8_BYwtl0zJ8-65" value="" style="rounded=0;whiteSpace=wrap;html=1;labelBackgroundColor=#ffffff;sketch=0;fillColor=#d5e8d4;strokeColor=#82b366;" parent="1" vertex="1">
          <mxGeometry x="385" y="525" width="140" height="90" as="geometry" />
        </mxCell>
        <mxCell id="zT9SbAeMT8_BYwtl0zJ8-66" style="edgeStyle=orthogonalEdgeStyle;rounded=0;orthogonalLoop=1;jettySize=auto;html=1;exitX=1;exitY=0;exitDx=0;exitDy=0;entryX=0.5;entryY=1;entryDx=0;entryDy=0;" parent="1" source="zT9SbAeMT8_BYwtl0zJ8-68" target="zT9SbAeMT8_BYwtl0zJ8-71" edge="1">
          <mxGeometry relative="1" as="geometry" />
        </mxCell>
        <mxCell id="zT9SbAeMT8_BYwtl0zJ8-67" style="edgeStyle=orthogonalEdgeStyle;rounded=0;orthogonalLoop=1;jettySize=auto;html=1;exitX=0;exitY=0;exitDx=0;exitDy=0;entryX=1;entryY=1;entryDx=0;entryDy=0;" parent="1" source="zT9SbAeMT8_BYwtl0zJ8-68" target="zT9SbAeMT8_BYwtl0zJ8-70" edge="1">
          <mxGeometry relative="1" as="geometry" />
        </mxCell>
        <mxCell id="zT9SbAeMT8_BYwtl0zJ8-68" value="" style="ellipse;whiteSpace=wrap;html=1;aspect=fixed;labelBackgroundColor=#ffffff;sketch=0;fillColor=#dae8fc;strokeColor=#6c8ebf;" parent="1" vertex="1">
          <mxGeometry x="465" y="580" width="23" height="23" as="geometry" />
        </mxCell>
        <mxCell id="zT9SbAeMT8_BYwtl0zJ8-69" style="edgeStyle=orthogonalEdgeStyle;rounded=0;orthogonalLoop=1;jettySize=auto;html=1;exitX=1;exitY=0.5;exitDx=0;exitDy=0;" parent="1" source="zT9SbAeMT8_BYwtl0zJ8-70" target="zT9SbAeMT8_BYwtl0zJ8-71" edge="1">
          <mxGeometry relative="1" as="geometry" />
        </mxCell>
        <mxCell id="zT9SbAeMT8_BYwtl0zJ8-70" value="" style="ellipse;whiteSpace=wrap;html=1;aspect=fixed;labelBackgroundColor=#ffffff;sketch=0;fillColor=#dae8fc;strokeColor=#6c8ebf;" parent="1" vertex="1">
          <mxGeometry x="422.5" y="535" width="20" height="20" as="geometry" />
        </mxCell>
        <mxCell id="zT9SbAeMT8_BYwtl0zJ8-71" value="" style="ellipse;whiteSpace=wrap;html=1;aspect=fixed;labelBackgroundColor=#ffffff;sketch=0;fillColor=#dae8fc;strokeColor=#6c8ebf;" parent="1" vertex="1">
          <mxGeometry x="475" y="535" width="20" height="20" as="geometry" />
        </mxCell>
        <mxCell id="zT9SbAeMT8_BYwtl0zJ8-72" style="edgeStyle=orthogonalEdgeStyle;rounded=0;orthogonalLoop=1;jettySize=auto;html=1;exitX=0.5;exitY=0;exitDx=0;exitDy=0;entryX=0;entryY=0.5;entryDx=0;entryDy=0;" parent="1" source="zT9SbAeMT8_BYwtl0zJ8-73" target="zT9SbAeMT8_BYwtl0zJ8-70" edge="1">
          <mxGeometry relative="1" as="geometry" />
        </mxCell>
        <mxCell id="zT9SbAeMT8_BYwtl0zJ8-73" value="" style="ellipse;whiteSpace=wrap;html=1;aspect=fixed;labelBackgroundColor=#ffffff;sketch=0;fillColor=#dae8fc;strokeColor=#6c8ebf;" parent="1" vertex="1">
          <mxGeometry x="415" y="575" width="21" height="21" as="geometry" />
        </mxCell>
        <mxCell id="zT9SbAeMT8_BYwtl0zJ8-74" value="Images + labels" style="text;html=1;fillColor=#dae8fc;align=center;verticalAlign=middle;whiteSpace=wrap;rounded=0;labelBackgroundColor=#ffffff;sketch=0;strokeColor=#99CCFF;" parent="1" vertex="1">
          <mxGeometry x="273" y="330" width="40" height="20" as="geometry" />
        </mxCell>
        <mxCell id="zT9SbAeMT8_BYwtl0zJ8-79" value="Images" style="html=1;shadow=0;dashed=0;align=center;verticalAlign=middle;shape=mxgraph.arrows2.arrow;dy=0.6;dx=40;direction=south;notch=0;labelBackgroundColor=#ffffff;sketch=0;strokeColor=#6c8ebf;fillColor=#dae8fc;" parent="1" vertex="1">
          <mxGeometry x="407.5" y="300" width="70" height="60" as="geometry" />
        </mxCell>
        <mxCell id="zT9SbAeMT8_BYwtl0zJ8-80" value="&lt;font color=&quot;#1A1A1A&quot;&gt;ContextNet&lt;/font&gt;" style="rounded=1;whiteSpace=wrap;html=1;labelBackgroundColor=#ffffff;sketch=0;strokeColor=#006EAF;fillColor=#1ba1e2;fontColor=#ffffff;" parent="1" vertex="1">
          <mxGeometry x="390" y="360" width="120" height="50" as="geometry" />
        </mxCell>
        <mxCell id="zT9SbAeMT8_BYwtl0zJ8-81" value="" style="html=1;shadow=0;dashed=0;align=center;verticalAlign=middle;shape=mxgraph.arrows2.arrow;dy=0.6;dx=40;direction=south;notch=0;fillColor=#dae8fc;strokeColor=#6c8ebf;" parent="1" vertex="1">
          <mxGeometry x="419.75" y="420" width="45" height="100" as="geometry" />
        </mxCell>
        <mxCell id="zT9SbAeMT8_BYwtl0zJ8-82" value="Images pseudo_labels" style="text;html=1;fillColor=#dae8fc;align=center;verticalAlign=middle;whiteSpace=wrap;rounded=0;labelBackgroundColor=#ffffff;sketch=0;strokeColor=#99CCFF;" parent="1" vertex="1">
          <mxGeometry x="424.75" y="440" width="40" height="20" as="geometry" />
        </mxCell>
        <mxCell id="zT9SbAeMT8_BYwtl0zJ8-85" style="edgeStyle=orthogonalEdgeStyle;rounded=0;orthogonalLoop=1;jettySize=auto;html=1;exitX=1;exitY=1;exitDx=0;exitDy=0;entryX=0.5;entryY=1;entryDx=0;entryDy=0;fontColor=#99CCFF;" parent="1" source="zT9SbAeMT8_BYwtl0zJ8-52" target="zT9SbAeMT8_BYwtl0zJ8-73" edge="1">
          <mxGeometry relative="1" as="geometry" />
        </mxCell>
        <mxCell id="zT9SbAeMT8_BYwtl0zJ8-90" value="&lt;span style=&quot;background-color: rgb(255 , 255 , 255)&quot;&gt;Node2vec&lt;/span&gt;" style="rounded=1;whiteSpace=wrap;html=1;labelBackgroundColor=#ffffff;sketch=0;strokeColor=#b85450;fillColor=#f8cecc;" parent="1" vertex="1">
          <mxGeometry x="555" y="370" width="90" height="40" as="geometry" />
        </mxCell>
        <mxCell id="zT9SbAeMT8_BYwtl0zJ8-94" value="&lt;div&gt;&lt;font color=&quot;#1A1A1A&quot;&gt;Train + valid&lt;/font&gt;&lt;/div&gt;" style="text;html=1;strokeColor=none;fillColor=none;align=center;verticalAlign=middle;whiteSpace=wrap;rounded=0;labelBackgroundColor=#ffffff;sketch=0;fontColor=#99CCFF;" parent="1" vertex="1">
          <mxGeometry x="540" y="230" width="100" height="20" as="geometry" />
        </mxCell>
        <mxCell id="zT9SbAeMT8_BYwtl0zJ8-97" value="" style="html=1;shadow=0;dashed=0;align=center;verticalAlign=middle;shape=mxgraph.arrows2.arrow;dy=0.6;dx=40;direction=south;notch=0;labelBackgroundColor=#ffffff;sketch=0;strokeColor=#b85450;fillColor=#f8cecc;" parent="1" vertex="1">
          <mxGeometry x="690" y="402.5" width="40" height="315" as="geometry" />
        </mxCell>
        <mxCell id="zT9SbAeMT8_BYwtl0zJ8-100" value="GCNBoost" style="shape=cube;whiteSpace=wrap;html=1;boundedLbl=1;backgroundOutline=1;darkOpacity=0.05;darkOpacity2=0.1;labelBackgroundColor=#ffffff;sketch=0;strokeColor=#10739e;fillColor=#b1ddf0;" parent="1" vertex="1">
          <mxGeometry x="240" y="710" width="500" height="80" as="geometry" />
        </mxCell>
        <mxCell id="zT9SbAeMT8_BYwtl0zJ8-105" value="Random" style="rounded=1;whiteSpace=wrap;html=1;labelBackgroundColor=#ffffff;sketch=0;strokeColor=#ae4132;fillColor=#fad9d5;" parent="1" vertex="1">
          <mxGeometry x="670" y="370" width="90" height="40" as="geometry" />
        </mxCell>
        <mxCell id="zT9SbAeMT8_BYwtl0zJ8-108" value="&lt;font color=&quot;#FF99CC&quot;&gt;Embedding&lt;/font&gt;" style="text;html=1;strokeColor=none;fillColor=none;align=center;verticalAlign=middle;whiteSpace=wrap;rounded=0;labelBackgroundColor=#ffffff;sketch=0;fontColor=#99CCFF;" parent="1" vertex="1">
          <mxGeometry x="635" y="323" width="40" height="20" as="geometry" />
        </mxCell>
        <mxCell id="zT9SbAeMT8_BYwtl0zJ8-110" value="&lt;font color=&quot;#FF99CC&quot;&gt;Adjecency matrix&lt;/font&gt;" style="text;html=1;strokeColor=none;fillColor=none;align=center;verticalAlign=middle;whiteSpace=wrap;rounded=0;labelBackgroundColor=#ffffff;sketch=0;fontColor=#99CCFF;" parent="1" vertex="1">
          <mxGeometry x="340" y="650" width="40" height="20" as="geometry" />
        </mxCell>
        <mxCell id="0ElEcp9tGG0Cmhz9kI70-2" value="&lt;div&gt;Image&lt;/div&gt;&lt;div&gt;+&lt;/div&gt;&lt;div&gt;Labels&lt;br&gt;&lt;/div&gt;" style="text;html=1;fillColor=#dae8fc;align=center;verticalAlign=middle;whiteSpace=wrap;rounded=0;labelBackgroundColor=#ffffff;sketch=0;strokeColor=#99CCFF;" parent="1" vertex="1">
          <mxGeometry x="170" y="697.5" width="40" height="20" as="geometry" />
        </mxCell>
        <mxCell id="0ElEcp9tGG0Cmhz9kI70-5" value="&lt;font color=&quot;#FF66B3&quot;&gt;Features&lt;/font&gt;" style="text;html=1;strokeColor=none;fillColor=none;align=center;verticalAlign=middle;whiteSpace=wrap;rounded=0;" parent="1" vertex="1">
          <mxGeometry x="630" y="536.5" width="40" height="20" as="geometry" />
        </mxCell>
        <mxCell id="0ElEcp9tGG0Cmhz9kI70-9" value="" style="shape=curlyBracket;whiteSpace=wrap;html=1;rounded=1;" parent="1" vertex="1">
          <mxGeometry x="110" y="160" width="20" height="600" as="geometry" />
        </mxCell>
        <mxCell id="0ElEcp9tGG0Cmhz9kI70-13" value="Trainng" style="text;html=1;fillColor=#dae8fc;align=center;verticalAlign=middle;whiteSpace=wrap;rounded=0;labelBackgroundColor=#ffffff;sketch=0;strokeColor=#99CCFF;" parent="1" vertex="1">
          <mxGeometry x="40" y="460" width="40" height="20" as="geometry" />
        </mxCell>
        <mxCell id="0ElEcp9tGG0Cmhz9kI70-22" style="edgeStyle=orthogonalEdgeStyle;rounded=0;orthogonalLoop=1;jettySize=auto;html=1;exitX=0.5;exitY=1;exitDx=0;exitDy=0;exitPerimeter=0;entryX=0.25;entryY=0;entryDx=0;entryDy=0;" parent="1" source="0ElEcp9tGG0Cmhz9kI70-14" target="0ElEcp9tGG0Cmhz9kI70-24" edge="1">
          <mxGeometry relative="1" as="geometry">
            <mxPoint x="60" y="890" as="targetPoint" />
          </mxGeometry>
        </mxCell>
        <mxCell id="0ElEcp9tGG0Cmhz9kI70-14" value="Test" style="shape=note;whiteSpace=wrap;html=1;backgroundOutline=1;darkOpacity=0.05;fillColor=#dae8fc;strokeColor=#6c8ebf;" parent="1" vertex="1">
          <mxGeometry x="2.5" y="750" width="115" height="50" as="geometry" />
        </mxCell>
        <mxCell id="0ElEcp9tGG0Cmhz9kI70-18" value="Iamges" style="text;html=1;fillColor=#dae8fc;align=center;verticalAlign=middle;whiteSpace=wrap;rounded=0;labelBackgroundColor=#ffffff;sketch=0;strokeColor=#99CCFF;" parent="1" vertex="1">
          <mxGeometry x="140" y="790" width="40" height="20" as="geometry" />
        </mxCell>
        <mxCell id="0ElEcp9tGG0Cmhz9kI70-20" value="" style="html=1;shadow=0;dashed=0;align=center;verticalAlign=middle;shape=mxgraph.arrows2.arrow;dy=0.6;dx=40;flipH=1;notch=0;fillColor=#f8cecc;strokeColor=#b85450;" parent="1" vertex="1">
          <mxGeometry x="495" y="377.5" width="68" height="25" as="geometry" />
        </mxCell>
        <mxCell id="0ElEcp9tGG0Cmhz9kI70-26" style="edgeStyle=orthogonalEdgeStyle;rounded=0;orthogonalLoop=1;jettySize=auto;html=1;exitX=0;exitY=0.5;exitDx=0;exitDy=0;entryX=1;entryY=0.5;entryDx=0;entryDy=0;" parent="1" source="0ElEcp9tGG0Cmhz9kI70-21" target="0ElEcp9tGG0Cmhz9kI70-24" edge="1">
          <mxGeometry relative="1" as="geometry" />
        </mxCell>
        <mxCell id="0ElEcp9tGG0Cmhz9kI70-21" value="Prediction" style="text;html=1;fillColor=#dae8fc;align=center;verticalAlign=middle;whiteSpace=wrap;rounded=0;labelBackgroundColor=#ffffff;sketch=0;strokeColor=#99CCFF;" parent="1" vertex="1">
          <mxGeometry x="255" y="880" width="40" height="20" as="geometry" />
        </mxCell>
        <mxCell id="0ElEcp9tGG0Cmhz9kI70-24" value="acc" style="text;html=1;fillColor=#dae8fc;align=center;verticalAlign=middle;whiteSpace=wrap;rounded=0;labelBackgroundColor=#ffffff;sketch=0;strokeColor=#99CCFF;" parent="1" vertex="1">
          <mxGeometry x="50" y="880" width="40" height="20" as="geometry" />
        </mxCell>
        <mxCell id="0ElEcp9tGG0Cmhz9kI70-25" value="Labels" style="text;html=1;fillColor=#dae8fc;align=center;verticalAlign=middle;whiteSpace=wrap;rounded=0;labelBackgroundColor=#ffffff;sketch=0;strokeColor=#99CCFF;" parent="1" vertex="1">
          <mxGeometry x="50" y="820" width="40" height="20" as="geometry" />
        </mxCell>
        <mxCell id="xi6CKTalc71JRSsFVKa0-5" value="WorkFor" style="text;html=1;strokeColor=none;fillColor=none;align=center;verticalAlign=middle;whiteSpace=wrap;rounded=0;" vertex="1" parent="1">
          <mxGeometry x="470" y="910" width="40" height="20" as="geometry" />
        </mxCell>
        <mxCell id="xi6CKTalc71JRSsFVKa0-6" value="LocatedIn" style="text;html=1;strokeColor=none;fillColor=none;align=center;verticalAlign=middle;whiteSpace=wrap;rounded=0;" vertex="1" parent="1">
          <mxGeometry x="535.5" y="950" width="152" height="20" as="geometry" />
        </mxCell>
        <mxCell id="xi6CKTalc71JRSsFVKa0-15" style="rounded=0;orthogonalLoop=1;jettySize=auto;html=1;exitX=0.75;exitY=0;exitDx=0;exitDy=0;entryX=0;entryY=0.75;entryDx=0;entryDy=0;" edge="1" parent="1" source="xi6CKTalc71JRSsFVKa0-9" target="xi6CKTalc71JRSsFVKa0-10">
          <mxGeometry relative="1" as="geometry" />
        </mxCell>
        <mxCell id="xi6CKTalc71JRSsFVKa0-19" style="rounded=0;orthogonalLoop=1;jettySize=auto;html=1;exitX=0.5;exitY=1;exitDx=0;exitDy=0;entryX=0;entryY=0.75;entryDx=0;entryDy=0;dashed=1;strokeColor=#CC0066;" edge="1" parent="1" source="xi6CKTalc71JRSsFVKa0-9" target="xi6CKTalc71JRSsFVKa0-11">
          <mxGeometry relative="1" as="geometry" />
        </mxCell>
        <mxCell id="xi6CKTalc71JRSsFVKa0-9" value="X" style="text;html=1;strokeColor=none;fillColor=none;align=center;verticalAlign=middle;whiteSpace=wrap;rounded=0;" vertex="1" parent="1">
          <mxGeometry x="407.5" y="960" width="40" height="20" as="geometry" />
        </mxCell>
        <mxCell id="xi6CKTalc71JRSsFVKa0-17" style="edgeStyle=orthogonalEdgeStyle;rounded=0;orthogonalLoop=1;jettySize=auto;html=1;exitX=0.5;exitY=1;exitDx=0;exitDy=0;entryX=0.5;entryY=0;entryDx=0;entryDy=0;" edge="1" parent="1" source="xi6CKTalc71JRSsFVKa0-10" target="xi6CKTalc71JRSsFVKa0-11">
          <mxGeometry relative="1" as="geometry" />
        </mxCell>
        <mxCell id="xi6CKTalc71JRSsFVKa0-10" value="&lt;div&gt;Y&lt;/div&gt;&lt;div&gt;&lt;br&gt;&lt;/div&gt;" style="text;html=1;strokeColor=none;fillColor=none;align=center;verticalAlign=middle;whiteSpace=wrap;rounded=0;" vertex="1" parent="1">
          <mxGeometry x="562.5" y="890" width="40" height="20" as="geometry" />
        </mxCell>
        <mxCell id="xi6CKTalc71JRSsFVKa0-11" value="Z" style="text;html=1;strokeColor=none;fillColor=none;align=center;verticalAlign=middle;whiteSpace=wrap;rounded=0;" vertex="1" parent="1">
          <mxGeometry x="562.5" y="1010" width="40" height="20" as="geometry" />
        </mxCell>
        <mxCell id="xi6CKTalc71JRSsFVKa0-20" value="&lt;font color=&quot;#FF0080&quot;&gt;WorkIn&lt;/font&gt;" style="text;html=1;strokeColor=none;fillColor=none;align=center;verticalAlign=middle;whiteSpace=wrap;rounded=0;" vertex="1" parent="1">
          <mxGeometry x="470" y="1010" width="40" height="20" as="geometry" />
        </mxCell>
      </root>
    </mxGraphModel>
  </diagram>
</mxfile>
